# xmcd
#
# Track frame offsets:
#	150
#	17275
#	37077
#	56436
#	79338
#	100638
#	122051
#	139999
#	158670
#	175679
#	193391
#
# Disc length: 2835 seconds
#
# Revision: 0
# Processed by: cddbd v1.5.2PL0 Copyright (c) Steve Scherf et al.
# Submitted via: dBpowerAMP V4.0
#
DISCID=8b0b110b
DTITLE=Ole - From My Heart
DYEAR=2006
DGENRE=Country
TTITLE0=Take It Easy
TTITLE1=Heaven
TTITLE2=I'm Sorry
TTITLE3=Sweet Home Alabama
TTITLE4=Have I Told You Lately
TTITLE5=Unchain My Heart
TTITLE6=Sitting On The Bay
TTITLE7=Here Without You
TTITLE8=Johnny B Goode
TTITLE9=Stuck On You
TTITLE10=I Don't Want To Miss A Thing
EXTD=
EXTT0=
EXTT1=
EXTT2=
EXTT3=
EXTT4=
EXTT5=
EXTT6=
EXTT7=
EXTT8=
EXTT9=
EXTT10=
PLAYORDER=
